PathFileType	4	(X/Y/Z)	TVC_9_BWA1_walk_RCNL2025.trc
DataRate	CameraRate	NumFrames	NumMarkers	Units	OrigDataRate	OrigDataStartFrame	OrigNumFrames
100	100	11	27	mm	100	348	397
Frame#	Time	R_Shoulder			L_Shoulder			C7			J_Notch			R_Elbow			L_Elbow			R_Wrist			L_Wrist			R_Asis			L_Asis			R_Psis			L_Psis			Sacral			Thoracic			Sternum			R_Thigh_Lateral			R_Knee_Lateral			R_Shank_Lateral			R_Ankle_Lateral			R_Heel			R_Toe			L_Thigh_Lateral			L_Knee_Lateral			L_Shank_Lateral			L_Ankle_Lateral			L_Heel			L_Toe		
		X1	Y1	Z1	X2	Y2	Z2	X3	Y3	Z3	X4	Y4	Z4	X5	Y5	Z5	X6	Y6	Z6	X7	Y7	Z7	X8	Y8	Z8	X9	Y9	Z9	X10	Y10	Z10	X11	Y11	Z11	X12	Y12	Z12	X13	Y13	Z13	X14	Y14	Z14	X15	Y15	Z15	X16	Y16	Z16	X17	Y17	Z17	X18	Y18	Z18	X19	Y19	Z19	X20	Y20	Z20	X21	Y21	Z21	X22	Y22	Z22	X23	Y23	Z23	X24	Y24	Z24	X25	Y25	Z25	X26	Y26	Z26	X27	Y27	Z27
348	3.47000000	1446.612793	1372.139160	-210.837601	1413.730713	1371.257324	-597.809143	1383.845459	1430.877808	-412.443665	1540.774536	1337.917603	-403.654175	1318.424316	1064.157104	-124.626602	1474.699219	1052.292969	-717.270508	1324.804016	812.351715	-129.788113	1659.483521	899.655762	-772.393219	1506.279663	924.668213	-249.436432	1476.859009	926.728088	-551.826050	1304.214844	939.300537	-328.557678	1294.062378	940.381042	-427.003326	1299.138611	939.840790	-377.780502	1297.804565	1151.851440	-392.872650	1605.853271	1151.449585	-402.989532	1544.397461	523.124817	-199.386749	1556.750977	446.365967	-271.345306	1582.800293	288.275299	-235.010468	1577.077881	63.575558	-313.511169	1518.533691	48.714314	-371.427490	1702.422607	50.359383	-367.014099	1432.922119	560.173828	-587.727051	1374.314941	438.540039	-533.310730	1288.118286	321.505676	-577.568420	1147.870117	144.973495	-496.205597	1096.524170	162.134842	-440.998779	1233.963867	35.022198	-449.343109
349	3.48000000	1455.331787	1372.048462	-210.102585	1421.512817	1371.285645	-596.925537	1392.148682	1430.814453	-411.177429	1549.260742	1338.398193	-403.054016	1331.428223	1062.690918	-122.677788	1479.525146	1051.233765	-715.446167	1342.033936	811.071594	-127.163734	1663.295105	897.299988	-770.908539	1516.408447	925.340698	-249.175232	1486.576172	926.902527	-550.728882	1314.047974	939.491028	-327.263672	1303.778564	939.594971	-426.204987	1308.913269	939.542999	-376.734329	1306.882080	1151.527588	-391.747223	1615.059082	1152.212280	-402.391418	1555.072510	523.867859	-199.258789	1564.455566	446.340118	-271.425262	1588.849731	287.675476	-235.688232	1578.816650	63.290199	-313.795471	1519.523560	49.310299	-371.224121	1703.556396	48.032856	-368.489594	1450.764526	559.867493	-589.467163	1393.581421	437.904327	-536.090515	1303.882935	324.060608	-580.292053	1158.666870	151.937775	-499.248383	1109.362427	172.718124	-443.975647	1235.912476	35.787891	-450.209778
350	3.49000000	1464.082520	1371.911743	-209.434158	1429.390625	1371.263672	-596.106201	1400.500000	1430.723877	-409.982330	1557.767090	1338.756470	-402.500763	1344.680664	1061.209106	-120.633644	1484.151245	1050.075684	-713.586243	1359.846008	809.880249	-124.429188	1666.747131	894.648682	-769.242859	1526.297363	925.955017	-248.826096	1496.167114	926.996704	-549.622253	1323.679810	939.721741	-325.996460	1313.321411	938.810852	-425.428589	1318.500610	939.266296	-375.712524	1315.879272	1151.213867	-390.651917	1624.164185	1152.811890	-401.786743	1565.790283	524.597229	-199.049683	1572.087646	446.333710	-271.402832	1594.695801	287.106598	-236.224594	1580.381836	63.099941	-314.030884	1520.448486	49.907276	-371.034424	1704.570679	46.142658	-369.688385	1469.629272	559.596436	-591.197144	1414.076660	437.204132	-538.939392	1321.274292	326.518982	-583.220154	1170.972900	159.252502	-502.683533	1123.659302	183.649033	-447.494751	1238.502808	37.048824	-451.298187
351	3.50000000	1472.866211	1371.706177	-208.839722	1437.345459	1371.176392	-595.366455	1408.875732	1430.589722	-408.894775	1566.286377	1338.971680	-402.011078	1358.143188	1059.714722	-118.494431	1488.609009	1048.820679	-711.701660	1378.209839	808.796143	-121.602432	1669.853699	891.701752	-767.390717	1535.937012	926.472595	-248.380859	1505.612793	926.984070	-548.545959	1333.093506	939.955078	-324.801300	1322.677002	938.030090	-424.673309	1327.885254	938.992584	-374.737305	1324.786011	1150.903320	-389.601410	1633.150879	1153.214478	-401.207458	1576.338257	525.253906	-198.748428	1579.522217	446.299561	-271.272217	1600.225342	286.535706	-236.607605	1581.733765	62.970398	-314.220917	1521.271973	50.460598	-370.865082	1705.437744	44.675438	-370.603851	1489.253784	559.426453	-592.863464	1435.557129	436.519073	-541.761719	1340.180176	328.822784	-586.269226	1184.733765	166.810272	-506.452820	1139.242432	194.683578	-451.521454	1241.999023	38.860031	-452.673553
352	3.51000000	1481.690186	1371.413818	-208.322479	1445.354858	1371.018677	-594.720581	1417.257324	1430.408325	-407.944489	1574.810913	1339.037109	-401.599091	1371.781738	1058.214722	-116.263252	1492.926636	1047.475708	-709.795715	1397.086914	807.841125	-118.705025	1672.625610	888.466858	-765.350739	1545.322754	926.871094	-247.834259	1514.900513	926.851379	-547.536621	1342.280029	940.162048	-323.717285	1331.840942	937.263611	-423.937775	1337.060486	938.712830	-373.827530	1333.595459	1150.601440	-388.610535	1642.005859	1153.401855	-400.689575	1586.440674	525.777893	-198.346451	1586.642334	446.204468	-271.030853	1605.354248	285.943390	-236.835220	1582.851807	62.876026	-314.367828	1521.968872	50.944424	-370.717529	1706.142578	43.594799	-371.246765	1509.332764	559.434143	-594.417480	1457.757202	435.948303	-544.457764	1360.426514	330.945862	-589.339905	1199.849731	174.483109	-510.471191	1155.899292	205.546555	-455.970245	1246.719727	41.230553	-454.413269
353	3.52000000	1490.565430	1371.026978	-207.882935	1453.396729	1370.796997	-594.180176	1425.635010	1430.190430	-407.152435	1583.332520	1338.960571	-401.275116	1385.569824	1056.721924	-113.947266	1497.127686	1046.054443	-707.865295	1416.432739	807.043091	-115.761246	1675.070374	884.960083	-763.125916	1554.450439	927.147827	-247.183029	1524.022461	926.603271	-546.623718	1351.238159	940.325073	-322.772644	1340.816162	936.532166	-423.221191	1346.027161	938.428619	-372.996918	1342.303467	1150.323853	-387.694214	1650.721069	1153.375977	-400.268524	1595.815918	526.118469	-197.839706	1593.354858	446.029205	-270.681519	1610.037842	285.322449	-236.916855	1583.735352	62.799591	-314.474396	1522.529053	51.350178	-370.590027	1706.685303	42.846592	-371.644196	1529.553223	559.698975	-595.818848	1480.411987	435.600952	-546.934082	1381.785645	332.902374	-592.327515	1216.187134	182.123657	-514.634399	1173.403076	215.945526	-460.708740	1253.026978	44.118523	-456.602509
354	3.53000000	1499.502563	1370.550781	-207.520798	1461.453125	1370.528564	-593.752808	1434.008545	1429.959473	-406.529907	1591.842651	1338.763550	-401.044708	1399.489258	1055.258179	-111.558212	1501.231079	1044.579346	-705.902588	1436.199219	806.437439	-112.797260	1677.192505	881.206207	-760.723511	1563.313965	927.318298	-246.425461	1532.975098	926.263245	-545.826965	1359.973755	940.439575	-321.981812	1349.611816	935.863708	-422.524323	1354.792786	938.151642	-372.253067	1350.907715	1150.092041	-386.866699	1659.293335	1153.158691	-399.974426	1604.237671	526.243103	-197.231003	1599.599121	445.766174	-270.233826	1614.269165	284.674896	-236.871582	1584.402588	62.730755	-314.544861	1522.957397	51.682861	-370.479462	1707.079468	42.365757	-371.835083	1549.629272	560.294250	-597.037720	1503.277588	435.583679	-549.112488	1403.991211	334.746429	-595.133789	1233.595581	189.567108	-518.829773	1191.538086	225.585876	-465.570007	1261.309448	47.436722	-459.325012
355	3.54000000	1508.508667	1370.004150	-207.236237	1469.512329	1370.238892	-593.440308	1442.385742	1429.747314	-406.078033	1600.332397	1338.477905	-400.908417	1413.529907	1053.854492	-109.112129	1505.252319	1043.080200	-703.898560	1456.337280	806.067963	-109.840210	1678.994873	877.237610	-758.154938	1571.905273	927.411560	-245.561707	1541.758179	925.870728	-545.155090	1368.498291	940.512329	-321.344910	1358.241089	935.288818	-421.849609	1363.369690	937.900574	-371.597260	1359.408203	1149.928101	-386.140045	1667.725098	1152.788574	-399.828308	1611.579346	526.141846	-196.531540	1605.350586	445.417084	-269.704071	1618.070435	284.008728	-236.723999	1584.885864	62.664497	-314.584869	1523.270630	51.956406	-370.382874	1707.349365	42.083660	-371.864410	1569.332397	561.278748	-598.055298	1526.145020	435.987457	-550.937439	1426.758911	336.561310	-597.678162	1251.924072	196.634567	-522.947388	1210.122437	234.186401	-470.372101	1271.959717	51.067348	-462.649048
356	3.55000000	1517.583862	1369.418335	-207.030685	1477.569458	1369.957642	-593.237732	1450.780029	1429.587769	-405.788361	1608.792969	1338.140991	-400.861633	1427.685791	1052.550659	-106.628410	1509.204468	1041.592773	-701.845276	1476.798401	805.985840	-106.917332	1680.480347	873.092285	-755.433929	1580.216919	927.463318	-244.594757	1550.375610	925.475159	-544.605347	1376.827515	940.559082	-320.849518	1366.719482	934.834656	-421.201263	1371.773499	937.696869	-371.025391	1367.806763	1149.849609	-385.522583	1676.022705	1152.315063	-399.839172	1617.832275	525.828064	-195.761017	1610.617676	444.990936	-269.113861	1621.480225	283.335052	-236.499390	1585.225342	62.599602	-314.600922	1523.494141	52.188942	-370.298737	1707.524902	41.934860	-371.776917	1588.509033	562.690308	-598.862976	1548.846802	436.876678	-552.379272	1449.810913	338.439728	-599.906189	1271.036865	203.138840	-526.890747	1229.022461	241.494125	-474.941315	1285.342651	54.881294	-466.609985
357	3.56000000	1526.719727	1368.833618	-206.906494	1485.625854	1369.714233	-593.133972	1459.204590	1429.510620	-405.644073	1617.216309	1337.790894	-400.895264	1441.951538	1051.392578	-104.128151	1513.100098	1040.155029	-699.738281	1497.535767	806.248016	-104.055023	1681.652527	868.811554	-752.574646	1588.246338	927.508301	-243.531754	1558.837280	925.127869	-544.164490	1384.978760	940.600769	-320.474792	1375.064697	934.519897	-420.585663	1380.021729	937.560333	-370.530228	1376.107666	1149.867310	-385.017334	1684.195679	1151.791138	-400.003021	1623.095825	525.335266	-194.945816	1615.434082	444.502167	-268.488007	1624.541504	282.666290	-236.220123	1585.462891	62.537300	-314.599792	1523.656738	52.398727	-370.227753	1707.637451	41.862404	-371.612671	1607.083496	564.542725	-599.460571	1571.255249	438.282349	-553.434692	1472.900146	340.459747	-601.793823	1290.825439	208.892380	-530.584717	1248.159546	247.297180	-479.134430	1301.757446	58.755383	-471.192719
358	3.57000000	1535.897949	1368.294556	-206.865982	1493.685913	1369.533569	-593.112488	1467.668701	1429.534912	-405.622162	1625.595703	1337.461670	-400.996674	1456.317749	1050.428589	-101.632164	1516.951050	1038.803223	-697.577087	1518.504517	806.913879	-101.277851	1682.516296	864.437592	-749.589417	1595.999878	927.574402	-242.385223	1567.159424	924.873962	-543.810425	1392.970581	940.659302	-320.196747	1383.295044	934.351562	-420.011810	1388.132812	937.505432	-370.104279	1384.317139	1149.983398	-384.621490	1692.255737	1151.265259	-400.302887	1627.546875	524.710022	-194.116058	1619.847900	443.969086	-267.852173	1627.294434	282.014862	-235.904022	1585.637329	62.480213	-314.587952	1523.787231	52.601109	-370.172943	1707.715454	41.821159	-371.404175	1625.047485	566.825562	-599.854980	1593.276367	440.200684	-554.124390	1495.830444	342.662720	-603.347229	1311.213867	213.716934	-533.979553	1267.508423	251.434479	-482.855072	1321.395142	62.581779	-476.318329
